<?xml version="1.0" encoding="utf-8"?>
<!-- Generator: Adobe Illustrator 16.0.0, SVG Export Plug-In . SVG Version: 6.00 Build 0)  -->
<!DOCTYPE svg PUBLIC "-//W3C//DTD SVG 1.1//EN" "http://www.w3.org/Graphics/SVG/1.1/DTD/svg11.dtd">
<svg version="1.1" id="Layer_1" xmlns="http://www.w3.org/2000/svg" xmlns:xlink="http://www.w3.org/1999/xlink" x="0px" y="0px"
	 width="30px" height="94px" viewBox="0 0 30 30" enable-background="new 0 0 30 30" xml:space="preserve">
<path id="x-mark-4-icon" d="M27.07,15c0,6.666-5.404,12.07-12.07,12.07C8.333,27.07,2.93,21.666,2.93,15S8.333,2.93,15,2.93
	C21.666,2.93,27.07,8.334,27.07,15z M24.727,15c0-5.376-4.352-9.727-9.727-9.727c-5.376,0-9.727,4.351-9.727,9.727
	c0,5.377,4.351,9.727,9.727,9.727C20.377,24.727,24.727,20.375,24.727,15z M19.062,21.24l-3.945-3.945l-3.945,3.945l-2.119-2.12
	l3.944-3.945l-3.945-3.944l2.12-2.119l3.944,3.943l3.943-3.944l2.121,2.119l-3.945,3.944l3.945,3.944L19.062,21.24z"/>
<path id="x-mark-4-icon_1_" fill="#FFFFFF" d="M27.07,45c0,6.666-5.404,12.07-12.07,12.07C8.333,57.07,2.93,51.666,2.93,45
	S8.333,32.93,15,32.93C21.666,32.93,27.07,38.334,27.07,45z M24.727,45c0-5.377-4.352-9.727-9.727-9.727
	c-5.376,0-9.727,4.352-9.727,9.727c0,5.377,4.351,9.727,9.727,9.727C20.377,54.727,24.727,50.375,24.727,45z M19.062,51.24
	l-3.945-3.945l-3.945,3.945l-2.119-2.12l3.944-3.944L9.053,41.23l2.12-2.119l3.944,3.943l3.943-3.943l2.121,2.119l-3.945,3.944
	l3.945,3.944L19.062,51.24z"/>
</svg>
