<?xml version="1.0" encoding="utf-8"?>
<!-- Generator: Adobe Illustrator 16.0.0, SVG Export Plug-In . SVG Version: 6.00 Build 0)  -->
<!DOCTYPE svg PUBLIC "-//W3C//DTD SVG 1.1//EN" "http://www.w3.org/Graphics/SVG/1.1/DTD/svg11.dtd">
<svg version="1.1" id="Layer_1" xmlns="http://www.w3.org/2000/svg" xmlns:xlink="http://www.w3.org/1999/xlink" x="0px" y="0px"
	 width="30px" height="94px" viewBox="0 0 30 30" enable-background="new 0 0 30 30" xml:space="preserve">
<path id="edit-10-icon" d="M15,5.273c5.375,0,9.727,4.35,9.727,9.727c0,5.375-4.35,9.727-9.727,9.727
	c-5.375,0-9.727-4.35-9.727-9.727C5.273,9.625,9.624,5.273,15,5.273 M15,2.93C8.333,2.93,2.93,8.334,2.93,15S8.333,27.07,15,27.07
	c6.666,0,12.07-5.404,12.07-12.07S21.666,2.93,15,2.93L15,2.93z M10.62,16.163l3.332,3.33L9.543,20.49L10.62,16.163z M21.669,11.886
	l-6.59,6.586l-3.433-3.432l6.59-6.586L21.669,11.886z"/>
<path id="edit-10-icon_1_" fill="#FFFFFF" d="M15,35.273c5.375,0,9.727,4.35,9.727,9.727c0,5.375-4.35,9.727-9.727,9.727
	c-5.375,0-9.727-4.35-9.727-9.727C5.273,39.625,9.624,35.273,15,35.273 M15,32.93C8.333,32.93,2.93,38.334,2.93,45
	S8.333,57.07,15,57.07c6.666,0,12.07-5.404,12.07-12.07S21.666,32.93,15,32.93L15,32.93z M10.62,46.163l3.332,3.33L9.543,50.49
	L10.62,46.163z M21.669,41.886l-6.59,6.586l-3.433-3.432l6.59-6.586L21.669,41.886z"/>
</svg>
