<?xml version="1.0" encoding="utf-8"?>
<!-- Generator: Adobe Illustrator 16.0.0, SVG Export Plug-In . SVG Version: 6.00 Build 0)  -->
<!DOCTYPE svg PUBLIC "-//W3C//DTD SVG 1.1//EN" "http://www.w3.org/Graphics/SVG/1.1/DTD/svg11.dtd">
<svg version="1.1" id="Layer_1" xmlns="http://www.w3.org/2000/svg" xmlns:xlink="http://www.w3.org/1999/xlink" x="0px" y="0px"
	 width="50px" height="150px" viewBox="0 0 50 50" enable-background="new 0 0 50 50" xml:space="preserve">
<path id="plus-5-icon" d="M35.516,28.168H28.07v7.445h-5.75v-7.445h-7.445v-5.75h7.445v-7.445h5.75v7.445h7.445V28.168z M45.117,25
	c0,11.11-9.007,20.117-20.117,20.117S4.883,36.11,4.883,25S13.89,4.883,25,4.883S45.117,13.89,45.117,25z M41.211,25
	c0-8.96-7.252-16.211-16.211-16.211C16.04,8.789,8.789,16.041,8.789,25c0,8.961,7.252,16.211,16.211,16.211
	C33.961,41.211,41.211,33.959,41.211,25z"/>
<path id="plus-5-icon_1_" fill="#FFFFFF" d="M35.516,78.168H28.07v7.445h-5.75v-7.445h-7.445v-5.75h7.445v-7.445h5.75v7.445h7.445
	V78.168z M45.117,75c0,11.11-9.007,20.117-20.117,20.117S4.883,86.11,4.883,75S13.89,54.883,25,54.883S45.117,63.89,45.117,75z
	 M41.211,75c0-8.961-7.252-16.211-16.211-16.211c-8.96,0-16.211,7.252-16.211,16.211c0,8.961,7.252,16.211,16.211,16.211
	C33.961,91.211,41.211,83.959,41.211,75z"/>
</svg>
