<?xml version="1.0" encoding="utf-8"?>
<!-- Generator: Adobe Illustrator 16.0.0, SVG Export Plug-In . SVG Version: 6.00 Build 0)  -->
<!DOCTYPE svg PUBLIC "-//W3C//DTD SVG 1.1//EN" "http://www.w3.org/Graphics/SVG/1.1/DTD/svg11.dtd">
<svg version="1.1" id="Layer_1" xmlns="http://www.w3.org/2000/svg" xmlns:xlink="http://www.w3.org/1999/xlink" x="0px" y="0px"
	 width="18px" height="60px" viewBox="0 0 18 18" enable-background="new 0 0 18 18" xml:space="preserve">
<path id="refresh-2-icon" d="M6.46,3.556c-1.856,1.151-2.919,3.092-3.022,5.12h-1.68l2.693,2.707l2.707-2.707H5.494
	C5.592,7.333,6.31,6.064,7.542,5.3c2.042-1.267,4.726-0.638,5.994,1.406c1.268,2.043,0.639,4.727-1.405,5.993
	c-1.87,1.16-4.276,0.731-5.642-0.916l-1.442,1.471c2.03,2.292,5.475,2.858,8.166,1.189c3.008-1.863,3.934-5.812,2.068-8.819
	C13.415,2.618,9.466,1.692,6.46,3.556z"/>
<path id="refresh-2-icon_1_" fill="#FFFFFF" d="M6.46,23.557c-1.856,1.15-2.919,3.092-3.022,5.119h-1.68l2.693,2.707l2.707-2.707
	H5.494c0.098-1.343,0.816-2.611,2.048-3.375c2.042-1.268,4.726-0.639,5.994,1.405c1.268,2.043,0.639,4.727-1.405,5.993
	c-1.87,1.16-4.276,0.731-5.642-0.916l-1.442,1.471c2.03,2.292,5.475,2.858,8.166,1.189c3.008-1.863,3.934-5.812,2.068-8.819
	C13.415,22.617,9.466,21.691,6.46,23.557z"/>
</svg>
