<?xml version="1.0" encoding="utf-8"?>
<!-- Generator: Adobe Illustrator 16.0.0, SVG Export Plug-In . SVG Version: 6.00 Build 0)  -->
<!DOCTYPE svg PUBLIC "-//W3C//DTD SVG 1.1//EN" "http://www.w3.org/Graphics/SVG/1.1/DTD/svg11.dtd">
<svg version="1.1" id="Layer_1" xmlns="http://www.w3.org/2000/svg" xmlns:xlink="http://www.w3.org/1999/xlink" x="0px" y="0px"
	 width="30px" height="93px" viewBox="0 0 30 30" enable-background="new 0 0 30 30" xml:space="preserve">
<path id="user-8-icon" d="M23.874,21.121c-3.46-0.797-6.679-1.496-5.12-4.436C23.501,7.736,20.013,2.95,15,2.95
	c-5.111,0-8.514,4.97-3.754,13.735c1.606,2.957-1.734,3.655-5.12,4.436c-3.458,0.798-3.191,2.621-3.191,5.929h10.544l0.708-3.636
	h1.625l0.709,3.636h10.544C27.065,23.742,27.332,21.919,23.874,21.121z M15.595,22.502h-1.171l-0.916-1.918h3.011L15.595,22.502z"/>
<path id="user-8-icon_1_" fill="#FFFFFF" d="M23.874,51.121c-3.46-0.797-6.679-1.496-5.12-4.436
	C23.501,37.736,20.013,32.95,15,32.95c-5.111,0-8.514,4.97-3.754,13.735c1.606,2.957-1.734,3.655-5.12,4.436
	c-3.458,0.798-3.191,2.621-3.191,5.929h10.544l0.708-3.636h1.625l0.709,3.636h10.544C27.065,53.742,27.332,51.919,23.874,51.121z
	 M15.595,52.502h-1.171l-0.916-1.918h3.011L15.595,52.502z"/>
</svg>
